<svg width="512" height="512" viewBox="0 0 512 512" xmlns="http://www.w3.org/2000/svg" role="img" aria-labelledby="title desc">
  <title id="title">Backhauls Logo</title>
  <desc id="desc">Stylized letter B in blue with a green arrow forming the counter</desc>
  <defs>
    <linearGradient id="blueGradient" x1="0" y1="0" x2="1" y2="1">
      <stop offset="0" stop-color="#072B63" />
      <stop offset="1" stop-color="#0B3C8A" />
    </linearGradient>
    <linearGradient id="greenGradient" x1="0" y1="0" x2="1" y2="1">
      <stop offset="0" stop-color="#1F7F35" />
      <stop offset="1" stop-color="#2FB24C" />
    </linearGradient>
  </defs>
  <rect width="512" height="512" rx="120" fill="url(#blueGradient)" />
  <path
    d="M140 96h128c90 0 154 52 154 128 0 46-23 84-64 108 54 20 86 62 86 116 0 82-66 132-170 132H140Z"
    fill="url(#blueGradient)"
  />
  <path
    d="M140 96h128c90 0 154 52 154 128 0 46-23 84-64 108 54 20 86 62 86 116 0 82-66 132-170 132H140Z"
    fill="#0B3C8A"
  />
  <path
    d="M144 348c28-102 90-166 176-166h24l-32-40 56-40 80 112-80 112-56-40 32-40h-24c-58 0-98 39-118 102Z"
    fill="url(#greenGradient)"
  />
</svg>
